<svg version="1.0" xmlns="http://www.w3.org/2000/svg" width="138.667" height="138.667" viewBox="0 0 104 104"><path d="M46.1 4.2c-5.2 4-5.6 4.1-12.1 3.9l-6.6-.2-1.9 6.1c-1.4 4.7-2.7 6.9-5.3 8.9-1.9 1.4-4.5 3.5-5.9 4.6l-2.4 2 2.2 6.4 2.2 6.4-2.2 6.5c-1.3 3.6-1.9 6.7-1.4 7.1 10.5 7.3 10.5 7.2 13.3 16.4 1.1 3.6 1.3 3.7 5.8 3.8 5.4.1 39.6.1 42.9 0 1.8-.1 2.6-1.2 4.1-6.2 1.6-5.3 2.6-6.6 7.6-10.5 3.1-2.5 5.5-5.1 5.2-5.7-.3-.7-1.2-3.6-2.1-6.5-1.6-5.1-1.6-5.5.5-11.5l2.1-6.2-2.4-2c-1.4-1.1-4-3.2-5.9-4.6-2.6-2.1-3.8-4.1-5.1-8.8L77 8h-7c-6.7 0-7.4-.2-12.4-4-2.9-2.2-5.5-4-5.7-4-.2 0-2.8 1.9-5.8 4.2zm-25.5 86c-.3.7-.9 2.8-1.5 4.5-.6 2-.6 3.3 0 3.3.5 0 .9-.5.9-1 0-.6.9-1 2-1s2 .5 2 1.1c0 .5.4.7 1 .4 1.2-.7.1-6.7-1.4-7.7-1.6-1.1-2.6-1-3 .4zm3 3.3c.1.8-.4 1.5-1.2 1.5-1.6 0-1.6-.2-.8-2.5.7-1.7 1.7-1.3 2 1zm3.6-2.8c-.6 1-.6 2.8-.1 4 .7 1.9 1.2 2.1 3.1 1.4 2.4-.9 3.1-3.7 1.5-5.9-1.3-1.7-3.5-1.5-4.5.5zm3.6 2c-.5 2.5-2.8 2.8-2.8.4 0-1.2.6-2.1 1.6-2.1.9 0 1.4.7 1.2 1.7zm3-2.1c-.3 1.1-.1 2.8.3 3.9.8 2 .8 2 .8 0 .1-1.6.3-1.7 1.1-.5.5.8 1.2 1.1 1.6.7.4-.4 1.3-.2 2.1.4 1 .9 1.3.5 1.3-2 0-2.1-.5-3.1-1.5-3.1-.8 0-1.5.8-1.5 1.7 0 1.5-.4 1.4-1.9-.6-1.7-2.2-1.8-2.2-2.3-.5zm12.4-.7c-2.3 1.4-1 5.6 1.8 5.8 2.4.3 2.5.3.3-.7-2.5-1-2.2-4 .4-4 .8 0 1.1-.5.8-1-.7-1.2-1.6-1.2-3.3-.1zm6 .3c-1.8 1.8-1.5 4.6.6 5.7 3.3 1.8 5.8-2.9 3-5.7-.7-.7-1.5-1.2-1.8-1.2-.3 0-1.1.5-1.8 1.2zm3.1 2.3c.8 1.9-1.3 3.1-2.3 1.4-.9-1.4-.4-2.9 1-2.9.4 0 1 .7 1.3 1.5zm3.7-1.4c0 .9-.3 2.4-.6 3.3-.3.9-.1 1.6.4 1.6.6 0 1.2-1 1.4-2.2.2-1.2.9-2.3 1.6-2.6.9-.3 1.1.3.6 2.2-.4 1.7-.2 2.6.6 2.6.7 0 1-1.3.8-3.3-.2-2.5-.8-3.2-2.5-3.3-1.6-.1-2.3.4-2.3 1.7zm10.3-1c.1.6-.4 1.4-1 1.6-.7.3-1.3 0-1.3-.6s-.4-1.1-1-1.1c-.5 0-1 1.3-1 3 0 1.6.5 3 1 3 .6 0 1-.7 1-1.6 0-.9.6-1.4 1.3-1.1.6.2 1.1 1 1 1.6-.2.6.2 1.1.7 1.1.6 0 1-1.6 1-3.5s-.4-3.5-1-3.5c-.5 0-.9.5-.7 1.1zm3.6-.1c-.4.8-.6 2.6-.5 4 .1 1.9.6 2.4 2 2.2 1-.2 2.2.2 2.7.9.5.9 1.1.8 2.5-.5.9-1 2.5-1.5 3.6-1.3 1.5.4 1.8.1 1.2-1.6-1.5-4.9-2.3-5.4-3.6-2-1.6 4.2-2.8 4.2-2.8.1 0-1.7-.3-2.8-.7-2.4-.5.4-.8 1.7-.8 2.8 0 3.6-2.3 3.2-2.7-.4-.2-2-.5-2.7-.9-1.8zm-39.7 11.6c1 1 2 1.6 2.2 1.3.3-.3-.5-1.1-1.7-1.8-2.1-1.3-2.1-1.2-.5.5zM38 100c-.8 2.6-.7 4.1.2 3.2.6-.6.8-1.6.5-2.4-.3-.7-.6-1.1-.7-.8zm8.5 1c-.4.6-1.1.8-1.6.5-.5-.4-.6.2-.2 1.1.4 1.1.8 1.3 1.1.6.2-.7.9-.9 1.4-.6.7.4.8.2.4-.4-.4-.7-.3-1.2.3-1.2.5 0 1.5.8 2 1.7.9 1.6 1 1.6 1.1.2 0-.9-.7-2-1.6-2.3-2.1-.8-2.2-.8-2.9.4zm13.1.7c-.6 1.5-.8 1.5-1.6.3-.6-.9-1-1-1-.3 0 1.9 1.7 2.4 3 .8.7-.9 1.1-1.8.8-2.1-.3-.3-.9.3-1.2 1.3zm-31.1.4c-.4.6-.4 1.3-.1 1.6.3.4.6.1.6-.6 0-.9.5-.9 2.3 0 2 1.1 2.1 1.1.8-.4-1.6-2-2.7-2.1-3.6-.6zm24 0c-.4.6-.5 1.2-.2 1.5.2.3.7-.2 1-1.1.7-1.7.1-2-.8-.4zm10.5.1c0 .4.7.8 1.5.8s1.5-.4 1.5-.8c0-.5-.7-.9-1.5-.9s-1.5.4-1.5.9zm5.3.3c-1 1.1-.9 1.3.6 1.2 1 0 1.8-.7 1.8-1.4 0-1.7-.9-1.6-2.4.2zm3.7-1.1c0 .2.7.9 1.5 1.6 1.3 1.1 1.4 1 .9-.4-.5-1.4-2.4-2.3-2.4-1.2z"/></svg>