<svg xmlns="http://www.w3.org/2000/svg" width="118.184" height="5.991"><path id="Фигура_1_копия_9" data-name="Фигура 1 копия 9" d="M1000.433 1553.448l-7.291 4.021-.055-.091-.357.616-7.9-4.546-7.291 4.021-.055-.091-.357.616-7.9-4.546-7.29 4.021-.056-.092-.357.617-7.9-4.546-7.29 4.021-.056-.092-.357.617-7.9-4.546-7.29 4.021-.056-.092-.357.617-7.9-4.546-7.291 4.021-.055-.091-.357.616-7.9-4.546-7.291 4.021-.487-.806 8.447-4.66.488.807-.182.1 7.028 4.042-.175-.289 8.447-4.66.488.807-.182.1 7.029 4.042-.175-.29 8.447-4.66.488.807-.182.1 7.029 4.042-.175-.29 8.447-4.66.488.807-.182.1 7.029 4.042-.175-.29 8.447-4.66.488.807-.182.1 7.028 4.042-.175-.289 8.43-4.66.488.807-.182.1 7.028 4.042-.175-.289 8.447-4.66.488.807-.182.1 7.028 4.042-.175-.289 8.447-4.66.488.807-8.448 4.659-.055-.091-.357.616z" transform="translate(-899.014 -1552.002)" fill="#c45f1c"/></svg>