<?xml version="1.0" standalone="no"?>
<!DOCTYPE svg PUBLIC "-//W3C//DTD SVG 20010904//EN"
 "http://www.w3.org/TR/2001/REC-SVG-20010904/DTD/svg10.dtd">
<svg version="1.0" xmlns="http://www.w3.org/2000/svg"
 width="104.000000pt" height="104.000000pt" viewBox="0 0 104.000000 104.000000"
 preserveAspectRatio="xMidYMid meet">
<metadata>
Created by potrace 1.14, written by Peter Selinger 2001-2017
</metadata>
<g transform="translate(0.000000,104.000000) scale(0.100000,-0.100000)"
fill="#000000" stroke="none">
<path d="M461 998 c-52 -40 -56 -41 -121 -39 l-66 2 -19 -61 c-14 -47 -27 -69
-53 -89 -19 -14 -45 -35 -59 -46 l-24 -20 22 -64 22 -64 -22 -65 c-13 -36 -19
-67 -14 -71 105 -73 105 -72 133 -164 11 -36 13 -37 58 -38 54 -1 396 -1 429
0 18 1 26 12 41 62 16 53 26 66 76 105 31 25 55 51 52 57 -3 7 -12 36 -21 65
-16 51 -16 55 5 115 l21 62 -24 20 c-14 11 -40 32 -59 46 -26 21 -38 41 -51
88 l-17 61 -70 0 c-67 0 -74 2 -124 40 -29 22 -55 40 -57 40 -2 0 -28 -19 -58
-42z"/>
<path d="M206 138 c-3 -7 -9 -28 -15 -45 -6 -20 -6 -33 0 -33 5 0 9 5 9 10 0
6 9 10 20 10 11 0 20 -5 20 -11 0 -5 4 -7 10 -4 12 7 1 67 -14 77 -16 11 -26
10 -30 -4z m30 -33 c1 -8 -4 -15 -12 -15 -16 0 -16 2 -8 25 7 17 17 13 20 -10z"/>
<path d="M272 133 c-6 -10 -6 -28 -1 -40 7 -19 12 -21 31 -14 24 9 31 37 15
59 -13 17 -35 15 -45 -5z m36 -20 c-5 -25 -28 -28 -28 -4 0 12 6 21 16 21 9 0
14 -7 12 -17z"/>
<path d="M338 134 c-3 -11 -1 -28 3 -39 8 -20 8 -20 8 0 1 16 3 17 11 5 5 -8
12 -11 16 -7 4 4 13 2 21 -4 10 -9 13 -5 13 20 0 21 -5 31 -15 31 -8 0 -15 -8
-15 -17 0 -15 -4 -14 -19 6 -17 22 -18 22 -23 5z"/>
<path d="M462 141 c-23 -14 -10 -56 18 -58 24 -3 25 -3 3 7 -25 10 -22 40 4
40 8 0 11 5 8 10 -7 12 -16 12 -33 1z"/>
<path d="M522 138 c-18 -18 -15 -46 6 -57 33 -18 58 29 30 57 -7 7 -15 12 -18
12 -3 0 -11 -5 -18 -12z m31 -23 c8 -19 -13 -31 -23 -14 -9 14 -4 29 10 29 4
0 10 -7 13 -15z"/>
<path d="M590 129 c0 -9 -3 -24 -6 -33 -3 -9 -1 -16 4 -16 6 0 12 10 14 22 2
12 9 23 16 26 9 3 11 -3 6 -22 -4 -17 -2 -26 6 -26 7 0 10 13 8 33 -2 25 -8
32 -25 33 -16 1 -23 -4 -23 -17z"/>
<path d="M693 139 c1 -6 -4 -14 -10 -16 -7 -3 -13 0 -13 6 0 6 -4 11 -10 11
-5 0 -10 -13 -10 -30 0 -16 5 -30 10 -30 6 0 10 7 10 16 0 9 6 14 13 11 6 -2
11 -10 10 -16 -2 -6 2 -11 7 -11 6 0 10 16 10 35 0 19 -4 35 -10 35 -5 0 -9
-5 -7 -11z"/>
<path d="M729 140 c-4 -8 -6 -26 -5 -40 1 -19 6 -24 20 -22 10 2 22 -2 27 -9
5 -9 11 -8 25 5 9 10 25 15 36 13 15 -4 18 -1 12 16 -15 49 -23 54 -36 20 -16
-42 -28 -42 -28 -1 0 17 -3 28 -7 24 -5 -4 -8 -17 -8 -28 0 -36 -23 -32 -27 4
-2 20 -5 27 -9 18z"/>
<path d="M332 24 c10 -10 20 -16 22 -13 3 3 -5 11 -17 18 -21 13 -21 12 -5 -5z"/>
<path d="M380 40 c-8 -26 -7 -41 2 -32 6 6 8 16 5 24 -3 7 -6 11 -7 8z"/>
<path d="M465 30 c-4 -6 -11 -8 -16 -5 -5 4 -6 -2 -2 -11 4 -11 8 -13 11 -6 2
7 9 9 14 6 7 -4 8 -2 4 4 -4 7 -3 12 3 12 5 0 15 -8 20 -17 9 -16 10 -16 11
-2 0 9 -7 20 -16 23 -21 8 -22 8 -29 -4z"/>
<path d="M596 23 c-6 -15 -8 -15 -16 -3 -6 9 -10 10 -10 3 0 -19 17 -24 30 -8
7 9 11 18 8 21 -3 3 -9 -3 -12 -13z"/>
<path d="M285 19 c-4 -6 -4 -13 -1 -16 3 -4 6 -1 6 6 0 9 5 9 23 0 20 -11 21
-11 8 4 -16 20 -27 21 -36 6z"/>
<path d="M525 19 c-4 -6 -5 -12 -2 -15 2 -3 7 2 10 11 7 17 1 20 -8 4z"/>
<path d="M630 18 c0 -4 7 -8 15 -8 8 0 15 4 15 8 0 5 -7 9 -15 9 -8 0 -15 -4
-15 -9z"/>
<path d="M683 15 c-10 -11 -9 -13 6 -12 10 0 18 7 18 14 0 17 -9 16 -24 -2z"/>
<path d="M720 26 c0 -2 7 -9 15 -16 13 -11 14 -10 9 4 -5 14 -24 23 -24 12z"/>
</g>
</svg>
